<svg width="128" height="128" viewBox="0 0 128 128" fill="none" xmlns="http://www.w3.org/2000/svg">
<path d="M64 69.25C66.8995 69.25 69.25 66.8995 69.25 64C69.25 61.1005 66.8995 58.75 64 58.75C61.1005 58.75 58.75 61.1005 58.75 64C58.75 66.8995 61.1005 69.25 64 69.25Z" stroke="#FFBB00" stroke-width="10.5" stroke-linecap="round" stroke-linejoin="round"/>
<path d="M107.05 107.05C117.76 96.3925 107.155 68.41 83.425 44.575C59.59 20.845 31.6075 10.24 20.95 20.95C10.24 31.6075 20.845 59.59 44.575 83.425C68.41 107.155 96.3925 117.76 107.05 107.05Z" stroke="#FFBB00" stroke-width="10.5" stroke-linecap="round" stroke-linejoin="round"/>
<path d="M83.425 83.425C107.155 59.59 117.76 31.6075 107.05 20.95C96.3925 10.24 68.41 20.845 44.575 44.575C20.845 68.41 10.24 96.3925 20.95 107.05C31.6075 117.76 59.59 107.155 83.425 83.425Z" stroke="#FFBB00" stroke-width="10.5" stroke-linecap="round" stroke-linejoin="round"/>
</svg>
